<svg xmlns="http://www.w3.org/2000/svg" xmlns:xlink="http://www.w3.org/1999/xlink" width="200" height="200" viewBox="0 0 200 200">
  <defs>
    <clipPath id="clip-path">
      <rect id="Rectangle_1" data-name="Rectangle 1" width="200" height="200" transform="translate(1492 -102)" fill="#fff"/>
    </clipPath>
  </defs>
  <g id="camper" transform="translate(-1492 102)">
    <g id="Mask_Group_1" data-name="Mask Group 1" clip-path="url(#clip-path)">
      <g id="camper-2" data-name="camper" transform="translate(1512 -40)">
        <path id="Path_1" data-name="Path 1" d="M81.007,230.4c-11.636.715-15.321,9.083-15.67,11.284h0a3.951,3.951,0,0,0,.842,3.245,4.347,4.347,0,0,0,3.481,1.43H82.028a3.722,3.722,0,0,0,3.747-3.861V234a3.368,3.368,0,0,0-1.027-2.529A5.107,5.107,0,0,0,81.007,230.4Zm2.246,12.1a1.2,1.2,0,0,1-1.224,1.338H69.66a2,2,0,0,1-1.562-.545,1.477,1.477,0,0,1-.269-1.21h0c.013-.084,2.042-8.467,13.333-9.161.108-.006.214-.01.317-.01a2.4,2.4,0,0,1,1.542.4.837.837,0,0,1,.232.691Z" transform="translate(-45.549 -200.27)"/>
        <path id="Path_2" data-name="Path 2" d="M112.075,286.757H108.5a1.262,1.262,0,1,0,0,2.523h3.577a1.262,1.262,0,1,0,0-2.523Z" transform="translate(-74.28 -238.862)"/>
        <path id="Path_3" data-name="Path 3" d="M62.659,333.911a3.8,3.8,0,1,0,3.8,3.8A3.8,3.8,0,0,0,62.659,333.911Zm0,5.085a1.281,1.281,0,1,1,1.281-1.281A1.281,1.281,0,0,1,62.659,339Z" transform="translate(-41.158 -271.144)"/>
        <path id="Path_4" data-name="Path 4" d="M346.286,333.911a3.8,3.8,0,1,0,3.8,3.8A3.8,3.8,0,0,0,346.286,333.911Zm0,5.085a1.281,1.281,0,1,1,1.281-1.281A1.281,1.281,0,0,1,346.286,339Z" transform="translate(-235.33 -271.144)"/>
        <path id="Path_5" data-name="Path 5" d="M153.939,139.473h-.272c-1.6-2.393-3.724-4.573-8.6-4.573H41.491a10.639,10.639,0,0,0-9.079,4.573h-.479a18.5,18.5,0,0,0-12.446,4.207c-3.119,2.622-5.657,6.467-7.987,12.1a4.237,4.237,0,0,0,.415,4.033,5.39,5.39,0,0,0,4.535,2.294H27.027a14,14,0,0,0-2.362,1.525,22.721,22.721,0,0,0-6.977,9.891c-1.113,2.632-1.917,4.533-4.41,5.555l-.05.022-.044.017c-3.115,1.313-7.4,3.659-8.662,8.856-.055.226-.108.475-.16.738a5.128,5.128,0,0,0-1.606,3.737,6.028,6.028,0,0,0,.541,2.931,3.851,3.851,0,0,0,.29.486c-.046.92-.071,1.782-.067,2.419.011,1.88.042,6.876,4.895,6.876h6.737a9.812,9.812,0,0,0,18.186,0H45.576a3.287,3.287,0,0,0,2.151-.8,3.621,3.621,0,0,0,2.27.8H104.6a9.812,9.812,0,0,0,18.186,0h28.565a11.146,11.146,0,0,0,11.133-11.133v-46a8.56,8.56,0,0,0-8.55-8.552Zm-112.45-2.05H145.066c2.615,0,4.135.691,5.4,2.05H35.82a7.82,7.82,0,0,1,5.671-2.048Zm-35.767,57.1a3.657,3.657,0,0,1,.2-3.84,3.659,3.659,0,0,1-.2,3.84Zm18.522,14.235a7.293,7.293,0,1,1,7.053-5.438,1.254,1.254,0,0,0-.131.435A7.3,7.3,0,0,1,24.244,208.763Zm22.114-6.907a.783.783,0,0,1-.782.782H33.988a9.816,9.816,0,1,0-19.487,0H8.413c-1.236,0-2.347-.334-2.372-4.365,0-.339.005-.752.02-1.205a2.943,2.943,0,0,0,1.987-1.441,6.032,6.032,0,0,0,.838-2.86c.105-2.048-.657-3.733-1.861-4.37,1.034-3.911,4.338-5.768,7.126-6.945l.1-.043c3.443-1.419,4.569-4.081,5.761-6.9a20.283,20.283,0,0,1,6.245-8.916c2.946-2.393,8.016-3.483,11.48-3.483h7.809a.814.814,0,0,1,.813.814v38.931Zm67.339,6.907a7.293,7.293,0,1,1,7.293-7.292,7.293,7.293,0,0,1-7.293,7.292Zm46.268-14.735a8.62,8.62,0,0,1-8.61,8.61H123.442a9.816,9.816,0,1,0-19.487,0H50a1.118,1.118,0,0,1-1.116-1.116v-38.63a3.309,3.309,0,0,0-3.305-3.305H16.45a2.919,2.919,0,0,1-2.438-1.174,1.714,1.714,0,0,1-.181-1.666c2.169-5.247,4.482-8.785,7.279-11.136A16.077,16.077,0,0,1,31.933,142H153.939a6.034,6.034,0,0,1,6.027,6.027Z" transform="translate(-2.743 -134.9)"/>
        <path id="Path_6" data-name="Path 6" d="M370.3,195.191H336.1a5.035,5.035,0,0,0-5.029,5.029v10.76a5.034,5.034,0,0,0,5.029,5.03h34.2a5.034,5.034,0,0,0,5.029-5.029V200.22A5.035,5.035,0,0,0,370.3,195.191Zm2.506,15.789a2.508,2.508,0,0,1-2.506,2.505H336.1a2.508,2.508,0,0,1-2.506-2.505V200.22a2.509,2.509,0,0,1,2.506-2.506h34.2a2.509,2.509,0,0,1,2.506,2.506Z" transform="translate(-227.521 -176.176)"/>
        <path id="Path_7" data-name="Path 7" d="M220.23,195.191H204.095a5.035,5.035,0,0,0-5.029,5.029v10.76a5.034,5.034,0,0,0,5.029,5.03H220.23a5.034,5.034,0,0,0,5.029-5.029V200.22A5.035,5.035,0,0,0,220.23,195.191Zm2.506,15.789a2.508,2.508,0,0,1-2.506,2.505H204.095a2.508,2.508,0,0,1-2.506-2.505V200.22a2.509,2.509,0,0,1,2.506-2.506H220.23a2.509,2.509,0,0,1,2.506,2.506Z" transform="translate(-137.147 -176.176)"/>
      </g>
    </g>
  </g>
</svg>
