<svg xmlns="http://www.w3.org/2000/svg" xmlns:xlink="http://www.w3.org/1999/xlink" width="200" height="200" viewBox="0 0 200 200">
  <defs>
    <clipPath id="clip-path">
      <rect id="Rectangle_2" data-name="Rectangle 2" width="200" height="200" transform="translate(1719 -102)" fill="#fff"/>
    </clipPath>
  </defs>
  <g id="car" transform="translate(-1719 102)">
    <g id="Mask_Group_2" data-name="Mask Group 2" clip-path="url(#clip-path)">
        <g id="noun_Hatchback_car_Small_1628354" data-name="noun_Hatchback car Small_1628354"
           transform="translate(1964.7 -444.3)">
            <path id="Path_32" data-name="Path 32"
                  d="M-68.407,450.3c0-.3-3.008-15.941-6.015-20.452-1.8-2.707-6.617-6.617-11.429-10.226a92.631,92.631,0,0,0-9.023-6.316c-1.2-.9-2.707-.9-5.113-1.2a264.446,264.446,0,0,0-30.077-1.8,94.972,94.972,0,0,0-15.038.9c-9.925,2.105-38.2,16.542-40.9,17.745-14.737,3.308-25.264,4.812-31.28,10.226-5.113,5.414-5.414,15.339-5.414,20.753v3.609a1.941,1.941,0,0,0,1.8,1.8h15.038a14.24,14.24,0,0,0,13.234,8.722,14.24,14.24,0,0,0,13.234-8.722H-104.5a14.24,14.24,0,0,0,13.234,8.722,14.24,14.24,0,0,0,13.234-8.722h2.105l.9-.3,4.511-2.406a4.152,4.152,0,0,0,.9-1.2c.6-2.707.6-8.121.6-10.226v-.6Zm-123.915,20.151a10.783,10.783,0,0,1-10.828-10.828A10.783,10.783,0,0,1-192.323,448.8,10.783,10.783,0,0,1-181.5,459.625,10.783,10.783,0,0,1-192.323,470.453Zm101.358,0a10.783,10.783,0,0,1-10.828-10.828A10.783,10.783,0,0,1-90.965,448.8a10.783,10.783,0,0,1,10.828,10.828A10.783,10.783,0,0,1-90.965,470.453Zm18.647-10.527-3.609,1.8h-.6c0-.6.3-1.2.3-1.8A14.44,14.44,0,0,0-90.664,445.49,14.44,14.44,0,0,0-105.1,459.926a3.815,3.815,0,0,0,.3,1.8h-73.387c0-.6.3-1.2.3-1.8a14.44,14.44,0,0,0-14.437-14.437,14.252,14.252,0,0,0-14.437,14.437,3.815,3.815,0,0,0,.3,1.8H-218.79v-3.609h10.828v-2.406H-218.79c.3-5.113,1.5-11.429,4.211-13.835,4.511-4.211,14.737-6.316,29.776-9.324l.3-.3s7.82-3.91,16.542-8.121c9.023-4.211,19.249-8.722,23.76-9.625,2.707-.6,8.121-.9,14.437-.9,6.918,0,14.737.3,21.354.9q4.963.451,8.121.9a19.172,19.172,0,0,1,2.707.6,1.317,1.317,0,0,1,.9.3s4.211,3.008,8.722,6.316,9.624,7.519,10.527,9.324c.9,1.2,2.406,6.316,3.609,10.828.9,3.91,1.8,7.519,1.8,8.421v.6C-72.017,453.009-72.017,457.821-72.317,459.926Zm-68.274-16.241h5.715v-2.406h-5.715Zm29.475,0h5.714v-2.406h-5.714Zm7.519-24.362c-2.105-1.8-7.218-2.105-12.031-2.406s-9.625-.3-10.527-.3h-.3a1.294,1.294,0,0,0-1.2,1.2l-.6,16.241a1.1,1.1,0,0,0,.3.9,1.1,1.1,0,0,0,.9.3h0l30.377-.6c.3,0,.6-.3.9-.6s.3-.6.3-1.2C-95.777,432.557-98.785,422.932-103.6,419.323Zm-22.257,13.234.6-13.835c1.8,0,5.715,0,9.324.3,4.812.3,9.925,1.2,10.828,2.105a22.146,22.146,0,0,1,5.113,7.218c.6,1.5,1.2,2.707,1.5,3.609Zm-6.617-16.241h-.9c-15.941,0-41.506,13.534-41.806,13.534a1.563,1.563,0,0,0-.6,1.2l.6,4.511a1.294,1.294,0,0,0,1.2,1.2h0l40.6-1.5a1.294,1.294,0,0,0,1.2-1.2l.9-16.241A2.118,2.118,0,0,0-132.47,416.315Zm-2.406,16.241-38.5,1.5-.3-2.707c1.8-.9,7.218-3.609,14.136-6.316,8.121-3.308,18.347-6.617,25.565-6.617Zm43.912,20.753a6.675,6.675,0,0,0-6.617,6.617,6.675,6.675,0,0,0,6.617,6.617,6.676,6.676,0,0,0,6.617-6.617A6.676,6.676,0,0,0-90.965,453.309Zm0,10.527a4.112,4.112,0,0,1-4.211-4.211,4.112,4.112,0,0,1,4.211-4.211,4.112,4.112,0,0,1,4.211,4.211A4.112,4.112,0,0,1-90.965,463.836Zm-101.358-10.527a6.675,6.675,0,0,0-6.617,6.617,6.675,6.675,0,0,0,6.617,6.617,6.675,6.675,0,0,0,6.617-6.617A6.675,6.675,0,0,0-192.323,453.309Zm0,10.527a4.112,4.112,0,0,1-4.211-4.211,4.112,4.112,0,0,1,4.211-4.211,4.112,4.112,0,0,1,4.211,4.211A4.112,4.112,0,0,1-192.323,463.836Z"
                  transform="translate(0 0)"/>
        </g>
    </g>
  </g>
</svg>
