<svg xmlns="http://www.w3.org/2000/svg" xmlns:xlink="http://www.w3.org/1999/xlink" width="200" height="200" viewBox="0 0 200 200">
  <defs>
    <clipPath id="clip-path">
      <rect id="Rectangle_3" data-name="Rectangle 3" width="200" height="200" transform="translate(1946 -102)" fill="#fff"/>
    </clipPath>
  </defs>
  <g id="limo" transform="translate(-1946 102)">
    <g id="Mask_Group_3" data-name="Mask Group 3" clip-path="url(#clip-path)">
      <g id="limo-2" data-name="limo" transform="translate(1964 -23)">
        <path id="Path_12" data-name="Path 12" d="M-188.225,431.412h3.792v-1.445h-3.792Zm65.913,0h3.792v-1.445h-3.792Zm20.406,6.32a4.087,4.087,0,0,0-4.153,4.153,4.087,4.087,0,0,0,4.153,4.153,4.087,4.087,0,0,0,4.153-4.153A4.2,4.2,0,0,0-101.905,437.732Zm0,6.862a2.777,2.777,0,0,1-2.709-2.709,2.659,2.659,0,0,1,2.709-2.709,2.777,2.777,0,0,1,2.709,2.709A2.659,2.659,0,0,1-101.905,444.595Zm-121.172-6.862a4.087,4.087,0,0,0-4.153,4.153,4.087,4.087,0,0,0,4.153,4.153,4.087,4.087,0,0,0,4.153-4.153A4.087,4.087,0,0,0-223.077,437.732Zm0,6.862a2.777,2.777,0,0,1-2.709-2.709,2.777,2.777,0,0,1,2.709-2.709,2.777,2.777,0,0,1,2.709,2.709A2.659,2.659,0,0,1-223.077,444.595Zm113.949-28.713c-1.445-1.083-4.334-1.625-7.4-1.986-2.889-.361-5.418-.542-5.418-.542a.663.663,0,0,0-.542.181.663.663,0,0,0-.181.542V424.55a.663.663,0,0,0,.181.542.664.664,0,0,0,.542.181h0l17.878-.361c.181,0,.542-.181.542-.361a.549.549,0,0,0,0-.722C-103.53,424.008-106.059,418.229-109.129,415.882Zm-12.1,7.946v-8.849c.9,0,2.709.181,4.7.361,2.709.361,5.959,1.083,6.682,1.625,1.806,1.445,3.792,4.876,4.7,6.5Zm-63.024-10.293h-.722c-10.293,0-27.088,8.849-27.088,8.849a.938.938,0,0,0-.361.722l.361,3.07a.777.777,0,0,0,.722.722h0l20.948-1.264h6.14a.663.663,0,0,0,.542-.181.663.663,0,0,0,.181-.542V414.437A.826.826,0,0,0-184.252,413.534Zm-.722,10.293h-5.418l-20.225,1.264-.181-1.806c1.264-.542,4.7-2.348,9.21-4.153,5.418-2.167,11.919-4.334,16.794-4.334v9.029h-.181Zm57.968-10.293H-179.2a.663.663,0,0,0-.542.181.663.663,0,0,0-.181.542V424.73a.663.663,0,0,0,.181.542.663.663,0,0,0,.542.181h52.008a.663.663,0,0,0,.542-.181.663.663,0,0,0,.181-.542V414.256a.663.663,0,0,0-.181-.542C-126.645,413.534-126.826,413.534-127.006,413.534Zm-.722,10.293h-50.744V414.8h50.564v9.029Zm49.661,12.1v-.361l-3.251-11.557a1.2,1.2,0,0,0-.9-.722l-15.35-1.806-8.668-9.932-.181-.181a6.31,6.31,0,0,0-2.167-.542,174.655,174.655,0,0,0-17.878-1.445c-11.2,0-25.1-.181-37.381-.181-13.9,0-25.1,0-27.81.722-6.5,1.445-25.282,10.113-26.907,10.835-9.571,2.167-16.433,1.264-20.406,5.056-3.251,3.431-3.431,11.377-3.431,15.711v2.709a1.165,1.165,0,0,0,1.083,1.083h9.932a9.294,9.294,0,0,0,8.668,5.779,9.294,9.294,0,0,0,8.668-5.779h103.836a9.294,9.294,0,0,0,8.668,5.779,9.294,9.294,0,0,0,8.668-5.779h12.46a1.219,1.219,0,0,0,1.084-.722c.542-1.806,1.806-1.806,1.806-8.126C-78.068,436.288-78.068,436.107-78.068,435.927Zm-145.009,13.183a7.245,7.245,0,0,1-7.223-7.223,7.245,7.245,0,0,1,7.223-7.223,7.245,7.245,0,0,1,7.223,7.223A7.245,7.245,0,0,1-223.077,449.109Zm121.172,0a7.245,7.245,0,0,1-7.223-7.223,7.245,7.245,0,0,1,7.223-7.223,7.245,7.245,0,0,1,7.223,7.223A7.49,7.49,0,0,1-101.905,449.109Zm20.406-5.779H-92.7c0-.361.181-.9.181-1.445a9.326,9.326,0,0,0-9.39-9.39,9.326,9.326,0,0,0-9.39,9.39,2.678,2.678,0,0,0,.181,1.264H-213.868c0-.361.181-.9.181-1.445a9.326,9.326,0,0,0-9.39-9.39,9.326,9.326,0,0,0-9.39,9.39,3.976,3.976,0,0,0,.181,1.445h-8.307v-1.625c0-4.153.542-12.1,2.889-14.086,2.709-2.709,9.752-2.528,19.5-4.515h.181s5.056-2.348,11.016-4.876c5.779-2.528,12.641-5.237,15.53-5.779,1.986-.542,13.724-.542,27.449-.542,12.28,0,26.365.181,37.381.181,5.418.181,10.113.542,13.544.9,1.625.181,3.07.361,4.153.542a6.384,6.384,0,0,1,1.083.181h.181l8.849,9.932a.938.938,0,0,0,.722.361l14.989,1.806,3.07,10.654v.542C-80.235,442.247-80.777,441.344-81.5,443.331Z" transform="translate(242.4 -409.2)"/>
      </g>
    </g>
  </g>
</svg>
