<svg xmlns="http://www.w3.org/2000/svg" xmlns:xlink="http://www.w3.org/1999/xlink" width="200" height="200"
     viewBox="0 0 200 200">
    <defs>
        <clipPath id="clip-path">
            <rect id="Rectangle_2" data-name="Rectangle 2" width="200" height="200" transform="translate(1719 -102)"
                  fill="#fff"/>
        </clipPath>
    </defs>
    <g id="limuzina" transform="translate(-1719 102)">
        <g id="Mask_Group_2" data-name="Mask Group 2" clip-path="url(#clip-path)">
            <g id="car" transform="translate(1732 -30)">
                <g id="Group_1" data-name="Group 1">
                    <path id="Path_8" data-name="Path 8"
                          d="M112.28,42.36a.991.991,0,0,0-.1-.065c-.042-.016-4.265-1.618-11.039-3.68-7.034-2.14-32.325-2.162-42.477.58-9.97,2.693-23.8,12.023-24.379,12.419a.48.48,0,0,1-.04.036l-2.434,1.492c-.121.054-2.971,1.385-3.128,7.1a95.058,95.058,0,0,0,1.21,13.93.453.453,0,0,0,.446.379h.014L98.671,72.44a.457.457,0,0,0,.412-.3,22.622,22.622,0,0,1,8.5-10.358.449.449,0,0,0,.17-.188c.188-.394,4.645-9.694,5.174-11.283a58.5,58.5,0,0,0,1.6-6.387C114.536,43.695,114.532,43.231,112.28,42.36ZM82.653,39.773c7.6,0,14.626.5,17.7,1.434,4.46,1.358,7.79,2.51,9.522,3.13l-1.255,2.851L79.031,48.872l-.507-9.049C79.9,39.791,81.288,39.773,82.653,39.773Zm-5.938.1.511,9.1-5.111.291,2.25-9.3c.778-.031,1.565-.064,2.351-.087ZM59.369,41.81a72.25,72.25,0,0,1,13.116-1.735l-2.25,9.3-30.1,1.713C45.038,48.085,53.133,43.493,59.369,41.81ZM30.724,73.632a90.5,90.5,0,0,1-1.139-13.369c.139-5.092,2.57-6.286,2.644-6.324l1.508-.921a1.313,1.313,0,0,0,1.307,1.071h.078L70.039,52.1a14.714,14.714,0,0,0-.621,3.962c.056,4.013.318,11.344,1.428,16.334Zm81.35-23.606c-.48,1.443-4.544,9.95-5.076,11.061a23.183,23.183,0,0,0-8.655,10.461l-26.58.82c-1.129-4.908-1.391-12.294-1.446-16.319a14.4,14.4,0,0,1,.677-4l38.6-2.2a1.36,1.36,0,0,0,1.165-.807l2.171-4.932a1.348,1.348,0,0,0,.1-.433,2.817,2.817,0,0,1,.581.338C113.51,44.76,112.574,48.529,112.074,50.026Z"
                          transform="translate(20.031 -32.3)"/>
                    <path id="Path_9" data-name="Path 9"
                          d="M22.976,53.823A7.675,7.675,0,1,0,30.651,61.5a7.675,7.675,0,0,0-7.675-7.676Zm0,12.641A4.966,4.966,0,1,1,27.942,61.5a4.966,4.966,0,0,1-4.966,4.964Z"
                          transform="translate(9.259 -18.799)"/>
                    <path id="Path_10" data-name="Path 10"
                          d="M173.307,61.357c-2.046-10.866-4.229-10.866-5.286-10.866-1.2,0-10.046-1.047-15.622-1.741-2.44-1.542-16.341-10.115-28.242-12.664-12.242-2.624-40.975-2.019-48.041,1.009-5.952,2.55-22.575,11.22-25.108,12.545-3.695.423-33.065,3.92-41.925,9.237a1.825,1.825,0,0,0-.54.5L4.1,65.6a8.909,8.909,0,0,0-2.16,7.9,18.726,18.726,0,0,0,5.074,9.045A1.8,1.8,0,0,0,8.206,83H21.75v-.007a13.513,13.513,0,0,0,24.379,0V83h80.362a13.513,13.513,0,0,0,24.413-.083c6.158-.592,18.811-1.9,20.635-2.817,2.172-1.087,4.094-3.906,4.307-4.226a1.794,1.794,0,0,0,.3-1V65.839C176.146,65.409,176.146,64.291,173.307,61.357Zm-4.892-4.805c.4,1.28.8,2.873,1.152,4.525l-8.473-5.042c3.206.229,6.169.441,7.321.516ZM11.2,61.862l8.713-1.042a19.558,19.558,0,0,0-3.339,3.754c-3.792.731-6.748,1.416-8.749,2.012Zm22.736,25.2a9.932,9.932,0,1,1,9.932-9.932,9.932,9.932,0,0,1-9.932,9.932Zm104.739,0a9.932,9.932,0,1,1,9.932-9.932,9.932,9.932,0,0,1-9.932,9.932ZM172.534,74.3a9.68,9.68,0,0,1-2.572,2.55c-1.188.473-9.661,1.5-17.916,2.324a13.543,13.543,0,1,0-26.712.213H47.275a13.544,13.544,0,1,0-26.68,0H8.959A16.035,16.035,0,0,1,5.441,72.63a4.692,4.692,0,0,1,.495-3.384c.84-.4,3.655-1.492,11.353-2.967a.9.9,0,0,0,.6-.414c.027-.045,2.8-4.464,6.494-5.593a.9.9,0,1,0-.372-1.761l-6.1.73C30.427,55.593,51.48,53.219,51.74,53.19a1.8,1.8,0,0,0,.639-.2c.188-.1,18.97-9.93,25.155-12.581,5.985-2.564,33.486-3.449,45.863-.8C135.559,42.215,150.635,51.9,150.784,52a1.809,1.809,0,0,0,.757.276c1.385.173,12.778,1.591,15.906,1.8a4.522,4.522,0,0,1,.307.621c-2.19-.153-6.927-.491-10.335-.737a.9.9,0,0,0-.529,1.676l13.795,8.208a15.279,15.279,0,0,1,1.847,2.236V74.3Z"
                          transform="translate(-1.701 -34.428)"/>
                    <path id="Path_11" data-name="Path 11"
                          d="M80.976,53.823A7.675,7.675,0,1,0,88.651,61.5a7.675,7.675,0,0,0-7.675-7.676Zm0,12.641A4.966,4.966,0,1,1,85.942,61.5a4.966,4.966,0,0,1-4.966,4.964Z"
                          transform="translate(55.998 -18.799)"/>
                </g>
            </g>
        </g>
    </g>
</svg>
