<svg xmlns="http://www.w3.org/2000/svg" width="200" height="200" viewBox="0 0 200 200">
  <g id="srednje-vozilo" transform="translate(-830 -523)">
    <g id="vozilo" transform="translate(852.242 563.469)">
      <g id="Group_1" data-name="Group 1" transform="translate(4.758 33.625)">
        <path id="Path_1" data-name="Path 1" d="M150.238,71.805v-8.05c0-.01-.01-.016-.011-.026a.348.348,0,0,0-.058-.138.4.4,0,0,0-.074-.13c-.006-.006,0-.018-.013-.023l-2.453-1.9-1.153-10.494s0,0,0,0a1.428,1.428,0,0,0-.14-.476c0-.006-.01-.006-.013-.011s0-.011,0-.016a92.89,92.89,0,0,0-10.19-13.732.338.338,0,0,0-.087-.1c-.359-.4-.7-.814-1.064-1.207,0,0-.014,0-.019-.008A1.42,1.42,0,0,0,134,35a504.755,504.755,0,0,0-54.3-1.085c-.008,0-.013.008-.021.01s-.014-.006-.021,0a66.448,66.448,0,0,0-36.58,17.76,123.133,123.133,0,0,0-34.3,7.5s0,.006-.008.008a1.446,1.446,0,0,0-.818.73,0,0,0,0,0,0,0c-.19.4-.328.815-.484,1.227a.367.367,0,0,0-.069.174c-.037.1-.085.2-.121.3a.325.325,0,0,0-.034.085c-.05.148-.111.291-.158.441-.016.026-.011.058-.021.087-.035.116-.051.235-.084.35a.376.376,0,0,0-.045.19c-.023.085-.04.174-.063.259a.361.361,0,0,0-.053.225c-.018.074-.037.148-.053.223a.354.354,0,0,0-.04.169c-.023.109-.058.217-.079.326a2.157,2.157,0,0,0-1.724,2.233A2.044,2.044,0,0,0,5,66.573a2.131,2.131,0,0,0,.021,2,37.115,37.115,0,0,0,1.937,8.994c.008.026.032.037.045.059A2.25,2.25,0,0,0,9.049,79.3H9.06l7.034.161,4.121.445a.391.391,0,0,0,.043,0h0a.4.4,0,0,0,.273-.114c.026-.024.027-.059.045-.09a.362.362,0,0,0,.08-.156c0-.008-.006-.013-.006-.021s.008-.013.008-.021V74.744c0-.013-.013-.021-.013-.034s.013-.023.013-.034A12.5,12.5,0,0,1,24.394,65.8a12.631,12.631,0,0,1,8.922-3.64A12.59,12.59,0,0,1,45.837,74.812h0v4.394a.644.644,0,0,0,.645.643H112a1.416,1.416,0,0,0,1.407-1.365s0,0,0,0l.045-1.333c0-.01.011-.016.011-.026s-.008-.013-.01-.021l.043-1.3c0-.01-.008-.014-.01-.024s.008-.014.008-.023c-.016-.182-.026-.367-.032-.55a12.589,12.589,0,1,1,25.16-.916v4.185a.806.806,0,0,0,.8.8H143.3a7.038,7.038,0,0,0,6.949-7.113C150.249,72.043,150.244,71.922,150.238,71.805Zm-13-6.754h12.192v1.2H138.169A15.053,15.053,0,0,0,137.242,65.051ZM120.8,60.911c-.167.058-.326.13-.5.182-.023.006-.029.031-.048.04a14.664,14.664,0,0,0-4.78,3.257L89.767,64.6l.024-11.1h0l.59-18.464c9.013-.116,18.059-.023,27.072.314a44.626,44.626,0,0,1,11.626,16.194,2.045,2.045,0,0,1,0,1.55,13.754,13.754,0,0,1-7.79,7.637C121.128,60.787,120.966,60.85,120.8,60.911ZM21.6,63.932l0,0H9.946a6.348,6.348,0,0,0,.2-3.86c-.008-.034-.042-.047-.058-.076s-.008-.063-.031-.087a.844.844,0,0,0-.085-.064c-.008,0-.014-.013-.023-.018a1.03,1.03,0,0,0-.172-.13s0-.011.006-.016a122.412,122.412,0,0,1,34.577-7.3,5.606,5.606,0,0,0,3.55-1.569c.055-.053.114-.1.169-.151a104.019,104.019,0,0,0-.717,14.285l-3.314.027A14.534,14.534,0,0,0,33.325,60.16H33.25a14.489,14.489,0,0,0-9.975,3.958A4.976,4.976,0,0,0,21.6,63.932Zm-13.337,0a4.338,4.338,0,0,1,.109-1.982.346.346,0,0,0,.031-.08c.039-.122.085-.241.135-.36a.368.368,0,0,0,.085-.227,4.313,4.313,0,0,1,.551-.87c.006,0,.016,0,.023-.008h.019c.035,0,.059-.027.093-.035a.243.243,0,0,1,.082.04A5.546,5.546,0,0,1,9.1,63.927H8.263ZM134.51,36.9a1.39,1.39,0,0,0-.243,1.936s.011,0,.014.008,0,.014.006.019a44.453,44.453,0,0,1,7.549,11.319c0,.006.01.008.013.014a1.394,1.394,0,0,0,1.309.913h.032l2.466-.053a.467.467,0,0,1,.019.068s0,0,0,0l.13,1.191-3.783.082a.012.012,0,0,0,0-.008c0-.031.014-.058,0-.088a43.807,43.807,0,0,0-9.8-15.477l2.468-.023A1.527,1.527,0,0,0,134.51,36.9Zm10.984,16.229.437,3.987-4.794.1a14.65,14.65,0,0,0,1.214-4.023Zm.857,7.814h-7.693a14.861,14.861,0,0,0,2.074-2.909l5.288-.114Zm-10.525,2.405a14.569,14.569,0,0,0,1.593-1.2h9.692l1.548,1.2Zm7.348-13.042a.621.621,0,0,1-.59-.42c0-.008-.013-.011-.016-.019s0-.018,0-.026a45.311,45.311,0,0,0-7.663-11.5.584.584,0,0,1-.116-.423.589.589,0,0,1,.651-.513c.008,0,.014-.008.024-.006s.014.01.023.01h.114a92,92,0,0,1,9.6,12.848ZM88.987,53.476s0,0,0,.006,0,0,0,0l-.024,11.119-40.8.334a103.378,103.378,0,0,1,.814-15.086,56.651,56.651,0,0,1,30.911-14.6c3.22-.1,6.454-.154,9.689-.2ZM49.054,76.723q-.67-5.007-.854-10.052l40.758-.334-.023,10.385H49.054Zm-.624-27.458a.355.355,0,0,0-.129.116c-.314.291-.646.556-.953.854a4.8,4.8,0,0,1-2.957,1.331A65.771,65.771,0,0,1,62.18,39.8,57.721,57.721,0,0,0,48.431,49.265ZM47.377,65.75c0,.042,0,.082,0,.124l-2.563.021c-.031-.04-.059-.084-.092-.124Zm.019.928q.178,5.036.847,10.044h-.412V74.816h0A14.513,14.513,0,0,0,45.4,66.692Zm63.9,6.758c0,.006.006.011.006.018s-.008.011-.008.018V75.1a1.992,1.992,0,0,1-.878,1.624H89.74l.023-10.391,24.25-.2A14.792,14.792,0,0,0,111.294,73.435ZM129.828,53.4a2.813,2.813,0,0,0-.008-2.164A45.444,45.444,0,0,0,118.7,35.409c3.782.15,7.558.326,11.32.555a.606.606,0,0,1,.431.22c.006.006.016,0,.023.011s0,.019.011.026a43.017,43.017,0,0,1,10.753,16.268,13.485,13.485,0,0,1-6.608,10.2,14.738,14.738,0,0,0-10.287-2.635A14.559,14.559,0,0,0,129.828,53.4Zm19.605,10.759v.09H136.47c-.029-.029-.056-.061-.085-.09ZM19.727,66.906c-.2.346-.394.7-.568,1.056l-13.493.109a1.335,1.335,0,0,1,0-1.051Zm.129,7.838v4.312l-3.685-.4c-.006,0-.011.006-.018,0s-.01-.006-.016-.006L9.089,78.5h0a1.448,1.448,0,0,1-1.323-1.085H8.8a.375.375,0,0,0,.109-.016c.035-.01.05-.045.08-.063a.347.347,0,0,0,.117-.092.342.342,0,0,0,.056-.137c.01-.034.039-.058.039-.095,0-.021-.019-.032-.021-.051s.013-.037.006-.056c-.195-.69-.37-1.383-.532-2.084-.01-.04-.047-.059-.066-.093a.363.363,0,0,0-.084-.117.334.334,0,0,0-.141-.058c-.035-.011-.061-.042-.1-.042H6.874a36.354,36.354,0,0,1-1.013-5.63l13.4-.109h0a.646.646,0,0,0,.574-.37c.212-.449.45-.891.706-1.317l0,0a.644.644,0,0,0-.217-.883.543.543,0,0,0-.281-.071c-.021,0-.034-.023-.055-.023h0L5.74,66.221c0-.018-.008-.034-.01-.05a1.347,1.347,0,0,1,1.183-1.408,2.082,2.082,0,0,0,1.232.442,2.076,2.076,0,0,0,1.277-.466H21.595l0,0a4.289,4.289,0,0,1,2.241.482l-.01.008A13.33,13.33,0,0,0,19.855,74.744Zm22.914-9.418a13.305,13.305,0,0,0-9.449-3.974h-.076a13.281,13.281,0,0,0-8.779,3.3c-.117-.071-.233-.141-.354-.2a13.686,13.686,0,0,1,9.135-3.484h.071A13.8,13.8,0,0,1,47.027,74.816h0v2.068a.625.625,0,0,0,.048.24h-.436V74.812h0A13.287,13.287,0,0,0,42.769,65.326ZM112,79.048H46.643V77.931h65.981l-.018.524s0,0,0,0l0,0A.6.6,0,0,1,112,79.048Zm23.165-14.112A13.393,13.393,0,0,0,112.659,75.23c.006.187.018.371.032.555l-.031.939h-1.085a2.807,2.807,0,0,0,.519-1.624V73.5a13.95,13.95,0,0,1,9-11.84q.227-.08.449-.164a14,14,0,0,1,12.84,2h0a13.939,13.939,0,0,1,5.653,10.74v4.237h-.609l0,0v-4.2s0,0,0-.006,0,0,0-.008A13.3,13.3,0,0,0,135.164,64.937ZM147.673,76.6a6.19,6.19,0,0,1-4.383,1.875h-2.445V74.22s0,0,0-.006,0,0,0-.008a14.741,14.741,0,0,0-2.162-7.155h10.751v4.777s0,.006,0,.01,0,.008,0,.011c.006.108.011.215.013.323A6.19,6.19,0,0,1,147.673,76.6Z" transform="translate(-4.758 -33.625)"/>
        <path id="Path_2" data-name="Path 2" d="M62.862,34.99c-.006,0-.013-.006-.019,0a52.474,52.474,0,0,0-27.5,12.237.364.364,0,0,0-.145.125c-.56.482-1.135.944-1.677,1.452a2.138,2.138,0,0,0,1.463,3.7h.042l36.109-.727c.039,0,.063-.032.1-.042a.385.385,0,0,0,.177-.077c.032-.032.034-.08.053-.121s.064-.09.066-.148l.518-16.226s0,0,0,0,0,0,0,0-.013-.019-.014-.032a.4.4,0,0,0-.375-.376c-.014,0-.023.013-.037.014-2.872.048-5.811.124-8.735.223C62.873,34.982,62.869,34.988,62.862,34.99Zm7.87,15.983L37.5,51.642l-.227-4.089h0a.381.381,0,0,0-.4-.37c-.008,0-.014-.008-.023-.008h0l-.243.013a51.662,51.662,0,0,1,26.326-11.4c2.777-.1,5.561-.167,8.293-.215Zm-34.516-2.9.188,3.367a1.707,1.707,0,0,1-.188-3.367Zm-2.571,2.243a1.324,1.324,0,0,1,.421-.929.275.275,0,0,0,.032-.029,2.555,2.555,0,0,0-.035.4,2.53,2.53,0,0,0,.762,1.8c.053.051.113.09.169.137a1.333,1.333,0,0,1-.99-.421A1.317,1.317,0,0,1,33.645,50.315Z" transform="translate(12.31 -32.947)"/>
        <path id="Path_3" data-name="Path 3" d="M95.219,48.579a2.424,2.424,0,0,0-.275-1.072,44.056,44.056,0,0,0-9-11.8c-.008-.006-.019,0-.027-.01a1.4,1.4,0,0,0-1.037-.561l0,0c-.91-.039-1.831-.045-2.743-.079-.027-.006-.047-.031-.076-.031s-.042.023-.066.027c-.162-.006-.326-.008-.49-.014-.032-.008-.053-.035-.087-.035s-.048.026-.076.032c-7.47-.257-15-.381-22.462-.291h-.018a.381.381,0,0,0-.357.307c-.01.031-.039.048-.04.082L57.95,51.322s0,.006,0,.01,0,.006,0,.01a.368.368,0,0,0,.064.148c.019.042.021.09.053.122a.412.412,0,0,0,.159.072c.04.014.069.05.113.051h.021l23.061-.465h0l.642-.013h0l10.787-.217a2.416,2.416,0,0,0,2.367-2.462ZM59.26,35.545c7.23-.08,14.522.035,21.76.281v14.65l-22.25.447Zm34.706,14.2a1.607,1.607,0,0,1-1.129.5l-10.37.209V35.87c.791.029,1.592.035,2.381.068h0a.609.609,0,0,1,.486.278c.013.021.035.029.051.047s0,.023.013.031a43.3,43.3,0,0,1,8.832,11.589,1.612,1.612,0,0,1-.265,1.863Z" transform="translate(27.572 -32.965)"/>
        <path id="Path_4" data-name="Path 4" d="M57.352,47.275h-.73a1.188,1.188,0,0,0-1.085-.712H52.96a1.19,1.19,0,0,0-1.085.712h-.519a.4.4,0,0,0-.4.4v.738a.4.4,0,0,0,.4.4h.534a1.2,1.2,0,0,0,1.071.687h2.577a1.2,1.2,0,0,0,1.072-.687h.743a.4.4,0,0,0,.4-.4v-.738A.4.4,0,0,0,57.352,47.275Z" transform="translate(23.319 -25.762)"/>
        <path id="Path_5" data-name="Path 5" d="M81.666,47.275h-.73a1.188,1.188,0,0,0-1.085-.712H77.273a1.19,1.19,0,0,0-1.085.712h-.521a.4.4,0,0,0-.4.4v.738a.4.4,0,0,0,.4.4H76.2a1.2,1.2,0,0,0,1.072.687H79.85a1.2,1.2,0,0,0,1.072-.687h.743a.4.4,0,0,0,.4-.4v-.738A.4.4,0,0,0,81.666,47.275Z" transform="translate(38.096 -25.762)"/>
        <path id="Path_6" data-name="Path 6" d="M26.841,52.024A11.538,11.538,0,1,0,38.378,63.562,11.55,11.55,0,0,0,26.841,52.024Zm0,22.271A10.734,10.734,0,1,1,37.574,63.562,10.746,10.746,0,0,1,26.841,74.3Z" transform="translate(1.651 -22.443)"/>
        <path id="Path_7" data-name="Path 7" d="M25.788,53.756a8.753,8.753,0,1,0,8.753,8.753A8.762,8.762,0,0,0,25.788,53.756Zm3.466,10.028a.441.441,0,0,0-.069-.206.132.132,0,0,1,.076-.05l3.508-.473a6.97,6.97,0,0,1-1.013,3.118Zm-.121-1.051s-.006.006-.011.006-.006,0-.011,0a.918.918,0,0,0-.579.378,2.776,2.776,0,0,0,.069-.6,2.618,2.618,0,0,0-.045-.437.648.648,0,0,0,.322.095.662.662,0,1,0-.6-.937,2.823,2.823,0,0,0-.683-.86.9.9,0,0,0,.246.082.745.745,0,0,0,.1.006,1,1,0,0,0,.225-.048h0a.93.93,0,0,0,.164-.035s0-.006.006-.008.011,0,.018,0l3.77-2.032a7.544,7.544,0,0,1,1.227,3.833Zm-4.987,6.584,1.54-3.2c.01-.013.031-.016.039-.031a.123.123,0,0,1,.167.047l1.532,3.188A6.933,6.933,0,0,1,24.146,69.316Zm-.852-8.087a.662.662,0,1,0-.6.937.648.648,0,0,0,.322-.095,2.8,2.8,0,0,0-.043.437,2.769,2.769,0,0,0,.082.646.9.9,0,0,0-.135-.187.936.936,0,0,0-.455-.233s-.01,0-.014,0,0,0-.008,0l-4.229-.571a7.56,7.56,0,0,1,1.227-3.833l3.77,2.032s.01,0,.014,0,0,.006.006.008a.864.864,0,0,0,.167.037h0a.984.984,0,0,0,.22.048A.913.913,0,0,0,24,60.346,2.9,2.9,0,0,0,23.294,61.229ZM19.82,66.171a6.977,6.977,0,0,1-1.013-3.118l3.426.461a.433.433,0,0,0,.177.125.124.124,0,0,1-.032.087Zm8.166-6.52c-.016,0-.034,0-.048,0a.125.125,0,0,1-.108-.137l.633-3.479a6.97,6.97,0,0,1,2.653,1.926Zm-4.249-.068a.124.124,0,0,1-.164.059L20.46,57.967a6.945,6.945,0,0,1,2.653-1.928l.637,3.5C23.749,59.552,23.733,59.567,23.736,59.584Zm3.3-.188s0,.008,0,.013,0,.006-.006.01a.919.919,0,0,0,.19.68,2.766,2.766,0,0,0-.982-.36.656.656,0,0,0,.214-.482.664.664,0,1,0-1.114.482,2.759,2.759,0,0,0-1.071.408.875.875,0,0,0,.2-.223.92.92,0,0,0,.08-.5s0,0-.006-.01,0-.008,0-.014L23.778,55.2a6.8,6.8,0,0,1,4.019,0Zm-4.085,4.9s0-.008,0-.011.008,0,.011,0a.931.931,0,0,0,.246-.646,2.847,2.847,0,0,0,.584.86.655.655,0,0,0-.58.646.664.664,0,0,0,1.328,0A.629.629,0,0,0,24.514,65a2.8,2.8,0,0,0,1.071.3.921.921,0,0,0-.248.077.955.955,0,0,0-.359.357s0,.01,0,.014-.008,0-.011.01L23.116,69.61a7.589,7.589,0,0,1-3.245-2.375Zm5.51,5.314L26.608,65.76s-.008,0-.01-.008,0-.008,0-.011a.911.911,0,0,0-.568-.441,2.783,2.783,0,0,0,1.034-.3.649.649,0,0,0-.027.135.664.664,0,0,0,1.328,0,.656.656,0,0,0-.58-.646,2.807,2.807,0,0,0,.6-.886.891.891,0,0,0,0,.217.939.939,0,0,0,.23.453s.008,0,.011,0,0,.008,0,.013L31.7,67.236A7.626,7.626,0,0,1,28.458,69.609Z" transform="translate(2.704 -21.39)"/>
        <path id="Path_8" data-name="Path 8" d="M84.556,52.024A11.538,11.538,0,1,0,96.093,63.562,11.55,11.55,0,0,0,84.556,52.024Zm0,22.271A10.734,10.734,0,1,1,95.289,63.562,10.746,10.746,0,0,1,84.556,74.3Z" transform="translate(36.73 -22.443)"/>
        <path id="Path_9" data-name="Path 9" d="M83.5,53.756a8.753,8.753,0,1,0,8.753,8.753A8.762,8.762,0,0,0,83.5,53.756Zm3.4,9.959c-.01-.013-.006-.034-.018-.045a.137.137,0,0,1,.095-.143l3.508-.473a6.937,6.937,0,0,1-1.013,3.118Zm-.051-.982s-.006.006-.011.006-.008,0-.011,0a.918.918,0,0,0-.577.378,2.776,2.776,0,0,0,.069-.6,2.819,2.819,0,0,0-.043-.437.647.647,0,0,0,.32.095.662.662,0,1,0,0-1.325.657.657,0,0,0-.6.387,2.83,2.83,0,0,0-.682-.857.9.9,0,0,0,.243.08.784.784,0,0,0,.106.006,1.006,1.006,0,0,0,.225-.048h0a1.121,1.121,0,0,0,.166-.035s0-.006.008-.008.011,0,.016,0l3.772-2.032a7.544,7.544,0,0,1,1.227,3.833Zm-4.984,6.586,1.542-3.208c.01-.013.027-.014.035-.029a.13.13,0,0,1,.169.048l1.532,3.188A6.975,6.975,0,0,1,81.864,69.318Zm-.854-8.087a.661.661,0,1,0-.6.936.648.648,0,0,0,.322-.095,2.8,2.8,0,0,0-.045.437,2.872,2.872,0,0,0,.082.648.865.865,0,0,0-.137-.188.929.929,0,0,0-.455-.233s-.01,0-.014,0,0,0-.008,0l-4.228-.571a7.541,7.541,0,0,1,1.228-3.833l3.77,2.032.013,0s0,.006.006.008a.865.865,0,0,0,.167.037h0a.983.983,0,0,0,.22.048.905.905,0,0,0,.384-.111A2.92,2.92,0,0,0,81.011,61.231Zm-3.474,4.941a6.946,6.946,0,0,1-1.015-3.118l3.426.461a.458.458,0,0,0,.178.127.121.121,0,0,1-.032.085Zm8.166-6.52c-.016,0-.034,0-.05,0a.125.125,0,0,1-.108-.137l.633-3.479a6.95,6.95,0,0,1,2.653,1.928Zm-4.249-.068a.124.124,0,0,1-.166.059l-3.113-1.679a6.953,6.953,0,0,1,2.653-1.926l.637,3.5C81.466,59.554,81.451,59.568,81.453,59.584Zm3.3-.188s0,.008,0,.013,0,.006-.006.011a.919.919,0,0,0,.19.68,2.8,2.8,0,0,0-.982-.36.656.656,0,0,0,.214-.482.663.663,0,1,0-1.114.482,2.782,2.782,0,0,0-1.072.408.856.856,0,0,0,.2-.228.923.923,0,0,0,.077-.5s0,0,0-.01,0-.006,0-.011L81.5,55.2a6.793,6.793,0,0,1,4.018,0Zm-4.084,4.9s0-.008,0-.011.008,0,.011,0a.911.911,0,0,0,.244-.646,2.827,2.827,0,0,0,.584.86.655.655,0,0,0-.58.646.663.663,0,0,0,1.326,0A.629.629,0,0,0,82.229,65a2.789,2.789,0,0,0,1.069.3.8.8,0,0,0-.606.437s0,.008,0,.011-.008,0-.01.01L80.831,69.61a7.6,7.6,0,0,1-3.245-2.373Zm5.51,5.312-1.851-3.849s-.008,0-.011-.01,0-.008,0-.013a.912.912,0,0,0-.569-.439,2.782,2.782,0,0,0,1.035-.3.644.644,0,0,0-.027.137.663.663,0,1,0,.744-.646,2.807,2.807,0,0,0,.6-.886.877.877,0,0,0,0,.215.916.916,0,0,0,.233.455s.008,0,.011,0,0,.008,0,.011l3.077,2.939A7.589,7.589,0,0,1,86.177,69.607Z" transform="translate(37.783 -21.39)"/>
      </g>
    </g>
    <rect id="Rectangle_2" data-name="Rectangle 2" width="200" height="200" transform="translate(830 523)" fill="none"/>
  </g>
</svg>
