<svg xmlns="http://www.w3.org/2000/svg" xmlns:xlink="http://www.w3.org/1999/xlink" width="200" height="200" viewBox="0 0 200 200">
  <defs>
    <clipPath id="clip-path">
      <rect id="Rectangle_4" data-name="Rectangle 4" width="200" height="200" transform="translate(2173 -102)" fill="#fff"/>
    </clipPath>
  </defs>
  <g id="suv" transform="translate(-2173 102)">
    <g id="Mask_Group_4" data-name="Mask Group 4" clip-path="url(#clip-path)">
      <g id="suv-2" data-name="suv" transform="translate(2201 -31)">
        <path id="Path_13" data-name="Path 13" d="M126.171,72.641a5.957,5.957,0,1,0,5.957,5.957A5.964,5.964,0,0,0,126.171,72.641Zm0,9.681a3.724,3.724,0,1,1,3.724-3.724A3.728,3.728,0,0,1,126.171,82.322Zm-91.6-9.681A5.957,5.957,0,1,0,40.532,78.6,5.964,5.964,0,0,0,34.575,72.641Zm0,9.681A3.724,3.724,0,1,1,38.3,78.6,3.728,3.728,0,0,1,34.575,82.322ZM154.217,65.858c-1.132-1.7-2.729-4.65-2.729-5.876V51.046c0-2.357-6.311-9.163-11.606-14.458a1.487,1.487,0,0,0-.86-.424c-.172-.022-17.735-2.246-62-2.246q-.068,0-.135.005c-.35.033-8.706.925-26.463,14.172-3.772.235-28.254,2.021-37.609,9.215a1.49,1.49,0,0,0-.581,1.181v9.329l-2.077,4.153a1.492,1.492,0,0,0,0,1.333l2.978,5.957a1.491,1.491,0,0,0,1.333.823h6.79a13.4,13.4,0,0,0,26.633,0h64.963a13.4,13.4,0,0,0,26.66-.282l12.3-2.732a1.435,1.435,0,0,0,.343-.121c1.535-.769,2.313-4.224,2.313-10.27A1.475,1.475,0,0,0,154.217,65.858Zm-5.706-6.622h-7.139l5.957-5.957h1.181Zm-2.189-11.272-11.231-.625-8.995-5.82,14.985.576C143.074,44.2,144.95,46.293,146.322,47.964ZM22.535,59.982A12.267,12.267,0,0,1,19.35,62.3c-1.735.867-3.218,1.479-4.135,1.833V59.982h7.321Zm12.04,29.042A10.425,10.425,0,1,1,45,78.6,10.438,10.438,0,0,1,34.575,89.023Zm91.6,0A10.425,10.425,0,1,1,136.6,78.6,10.438,10.438,0,0,1,126.171,89.023Zm24.46-14.739-11.194,2.488a13.394,13.394,0,0,0-26.582.336H47.891a13.4,13.4,0,0,0-26.633,0H15.389l-2.234-4.468,1.9-3.8a1.5,1.5,0,0,0,.157-.666V65.721a48.027,48.027,0,0,0,4.8-2.093,13.085,13.085,0,0,0,4.755-3.976.744.744,0,0,0-.619-1.158H16.424C26.9,52.424,50.786,51.059,51.04,51.045a1.487,1.487,0,0,0,.813-.3C68.328,38.393,76.436,37,77.113,36.9c39.891,0,57.91,1.811,61.03,2.163.235.235.47.475.7.715l-16.728-.643a1.1,1.1,0,0,0-1.107.778,1.117,1.117,0,0,0,.459,1.275l12.659,8.191a1.122,1.122,0,0,0,.545.177l13.4.744v-.005a3.78,3.78,0,0,1,.433.831v.665h-1.49a.742.742,0,0,0-.527.219l-7.447,7.447a.745.745,0,0,0,.527,1.271h9.006c.361,2.239,2.145,5.21,2.907,6.4C151.456,71.909,150.891,73.706,150.631,74.284ZM122.12,47.648l-8.191-8.191a1.113,1.113,0,0,0-.766-.327l-35.745-.744a.935.935,0,0,0-.274.029C67.3,40.686,54.84,51.606,54.316,52.07a1.1,1.1,0,0,0-.358.693l-.878,1.316a3.76,3.76,0,0,0-.632,2.091L52.454,70.1l.744,4.468a.374.374,0,0,0,.367.311h35v-.011a.316.316,0,0,0,.06.011h21.683a.375.375,0,0,0,.361-.28,16,16,0,0,1,11.5-11.5.375.375,0,0,0,.28-.361V48.439a.37.37,0,0,0-.013-.061A1.115,1.115,0,0,0,122.12,47.648Zm-32.438,1.8V40.874l2.234.047V49.3ZM118.8,47.489,93.4,49.2V40.952l19.261.4ZM77.512,40.621l10.68.222v8.708L65.321,51.1,63.8,47.577C67.956,44.7,73.079,41.681,77.512,40.621ZM62.551,48.45l1.194,2.75-5.311.358C59.546,50.674,60.958,49.591,62.551,48.45ZM53.193,70.035V56.17a3.013,3.013,0,0,1,.507-1.678l.549-.823a1.114,1.114,0,0,0,.805.354c.025,0,.051,0,.076,0l33.807-2.279v1.849a29.874,29.874,0,0,0-1.49,6.763v8.935a28.049,28.049,0,0,0,.719,4.84H53.879Zm56.828,4.1h-21.1a28.609,28.609,0,0,1-.733-4.84V60.356c0-2.147,1.456-6.541,1.47-6.584a.371.371,0,0,0,.018-.117V51.691L121.4,49.553a1.184,1.184,0,0,0,.3-.063V62.447A16.726,16.726,0,0,0,110.021,74.131Z" transform="translate(-9.999 -33.918)"/>
      </g>
    </g>
  </g>
</svg>
